Genre:Comedy | Romance 
Language:English
IMDb:http://www.imdb.com/title/tt1212436/
Subtitles: ROMANA
Source:DVD
Encoder: Tony2
........................................
General
Complete name : The Back-Up Plan.2010.DvDrip.H264.FEEL-FREE
Format : MPEG-4
Format profile : Base Media
Codec ID : isom
File size : 694 MiB
Duration : 1h 44mn
Overall bit rate : 931 Kbps
............................................

Video
ID : 1
Format : AVC
Format/Info : Advanced Video Codec
Format profile : Main@L1.3
Format settings, CABAC : Yes
Format settings, ReFrames : 1 frame
Codec ID : avc1
Codec ID/Info : Advanced Video Coding
Duration : 1h 44mn
Bit rate mode : Variable
Bit rate : 774 Kbps
Width : 720 pixels
Height : 304 pixels
Display aspect ratio : 2.35:1
Frame rate mode : Constant
Frame rate : 29.970 fps
Resolution : 24 bits
Colorimetry : 4:2:0
Scan type : Progressive
Bits/(Pixel*Frame) : 0.118
Stream size : 577 MiB (83%)
.............................................

Audio
ID : 2
Format : AAC
Format/Info : Advanced Audio Codec
Format version : Version 4
Format profile : LC
Format settings, SBR : No
Codec ID : 40
Duration : 1h 44mn
Bit rate mode : Variable
Bit rate : 152 Kbps
Channel(s) : 2 channels
Channel positions : L R
Sampling rate : 44.1 KHz
Resolution : 16 bits
Stream size : 113 MiB (16%)
.............................................
Plot:
A romantic comedy centered on a woman who conceives twins through artificial insemination, only to meet the man of her dreams on the very same day
...................................................